<svg enable-background="new 0 0 71.73 143.242" height="500" viewBox="0 0 499.99998 499.99999" width="500" xmlns="http://www.w3.org/2000/svg"><path d="m100.40684 316.94749c-74.7956-26.90845-119.222157-59.93375-167.932364-133.63506-11.95307-20.30527-33.932526-65.62035-33.100106-124.768452-1.94542-58.97039638 27.853106-126.919637 83.465787-163.181058 53.704688-38.2723 123.010103-38.84283 164.237953-23.72845 51.62015 19.17097 83.94685 67.580149 93.78211 105.520071 11.96243 42.387598-.18707 112.64702-58.65241 141.416719-26.88975 14.4129-61.8137 17.02238-89.199161 6.71543-27.385465-11.04586-47.260497-35.298072-53.882386-60.635234-14.43162-55.9400357 28.012109-86.945093 46.73673-90.125093 76.179847-25.402636 114.760797 93.810156 25.664517 103.948765 40.61054 13.561792 82.47439-28.114995 74.51501-70.5680705-1.60869-42.4624205-53.01257-84.6068485-109.710199-67.3319305-14.805733 4.087238-37.224763 14.478379-54.770918 37.851417-17.9950913 23.232738-26.1602193 59.643811-16.8072673 95.035401 9.1191363 35.587995 36.8506603 69.651465 75.4783773 84.962265 39.020537 14.3942 82.465027 10.2789 118.342977-8.38961 76.59137-37.88882 91.92087-130.211867 76.70362-181.007777-16.24082-66.227009-70.98584-112.981253-116.16375-130.614063-51.55351-18.79944-131.932826-17.47132-196.290533 27.6567-65.863517 42.237961-101.545057 125.2361065-98.954277 192.128458-.88854 67.930532 24.42991 119.923612 38.244236 143.034772 55.687511 84.92487 119.493386 111.46856 198.292054 115.7148" fill="#ff6b00" stroke="#000" stroke-width="9.999743" transform="translate(177.83467 178.05988)"/></svg>